G04 #@! TF.GenerationSoftware,KiCad,Pcbnew,9.0.2*
G04 #@! TF.CreationDate,2025-11-24T09:54:34-06:00*
G04 #@! TF.ProjectId,Keypad,4b657970-6164-42e6-9b69-6361645f7063,rev?*
G04 #@! TF.SameCoordinates,Original*
G04 #@! TF.FileFunction,Copper,L1,Top*
G04 #@! TF.FilePolarity,Positive*
%FSLAX46Y46*%
G04 Gerber Fmt 4.6, Leading zero omitted, Abs format (unit mm)*
G04 Created by KiCad (PCBNEW 9.0.2) date 2025-11-24 09:54:34*
%MOMM*%
%LPD*%
G01*
G04 APERTURE LIST*
G04 Aperture macros list*
%AMRoundRect*
0 Rectangle with rounded corners*
0 $1 Rounding radius*
0 $2 $3 $4 $5 $6 $7 $8 $9 X,Y pos of 4 corners*
0 Add a 4 corners polygon primitive as box body*
4,1,4,$2,$3,$4,$5,$6,$7,$8,$9,$2,$3,0*
0 Add four circle primitives for the rounded corners*
1,1,$1+$1,$2,$3*
1,1,$1+$1,$4,$5*
1,1,$1+$1,$6,$7*
1,1,$1+$1,$8,$9*
0 Add four rect primitives between the rounded corners*
20,1,$1+$1,$2,$3,$4,$5,0*
20,1,$1+$1,$4,$5,$6,$7,0*
20,1,$1+$1,$6,$7,$8,$9,0*
20,1,$1+$1,$8,$9,$2,$3,0*%
G04 Aperture macros list end*
G04 #@! TA.AperFunction,ComponentPad*
%ADD10C,2.200000*%
G04 #@! TD*
G04 #@! TA.AperFunction,SMDPad,CuDef*
%ADD11R,1.600000X0.850000*%
G04 #@! TD*
G04 #@! TA.AperFunction,SMDPad,CuDef*
%ADD12RoundRect,0.152400X1.063600X0.609600X-1.063600X0.609600X-1.063600X-0.609600X1.063600X-0.609600X0*%
G04 #@! TD*
G04 #@! TA.AperFunction,ComponentPad*
%ADD13C,1.524000*%
G04 #@! TD*
G04 #@! TA.AperFunction,SMDPad,CuDef*
%ADD14RoundRect,0.152400X-1.063600X-0.609600X1.063600X-0.609600X1.063600X0.609600X-1.063600X0.609600X0*%
G04 #@! TD*
G04 #@! TA.AperFunction,ViaPad*
%ADD15C,0.600000*%
G04 #@! TD*
G04 #@! TA.AperFunction,Conductor*
%ADD16C,0.200000*%
G04 #@! TD*
G04 APERTURE END LIST*
D10*
X183515000Y-75882500D03*
X177165000Y-78422500D03*
X107315000Y-75882500D03*
X100965000Y-78422500D03*
X164465000Y-94932500D03*
X158115000Y-97472500D03*
X107315000Y-94932500D03*
X100965000Y-97472500D03*
X88265000Y-94932500D03*
X81915000Y-97472500D03*
X202565000Y-94932500D03*
X196215000Y-97472500D03*
X126365000Y-94932500D03*
X120015000Y-97472500D03*
X183515000Y-94932500D03*
X177165000Y-97472500D03*
D11*
X159100000Y-78825000D03*
X159100000Y-80575000D03*
X162600000Y-80575000D03*
X162600000Y-78825000D03*
D12*
X134425000Y-71100000D03*
D13*
X135260000Y-71100000D03*
D12*
X134425000Y-73640000D03*
D13*
X135260000Y-73640000D03*
D12*
X134425000Y-76180000D03*
D13*
X135260000Y-76180000D03*
D12*
X134425000Y-78720000D03*
D13*
X135260000Y-78720000D03*
D12*
X134425000Y-81260000D03*
D13*
X135260000Y-81260000D03*
D12*
X134425000Y-83800000D03*
D13*
X135260000Y-83800000D03*
D12*
X134425000Y-86340000D03*
D13*
X135260000Y-86340000D03*
X150500000Y-86340000D03*
D14*
X151335000Y-86340000D03*
D13*
X150500000Y-83800000D03*
D14*
X151335000Y-83800000D03*
D13*
X150500000Y-81260000D03*
D14*
X151335000Y-81260000D03*
D13*
X150500000Y-78720000D03*
D14*
X151335000Y-78720000D03*
D13*
X150500000Y-76180000D03*
D14*
X151335000Y-76180000D03*
D13*
X150500000Y-73640000D03*
D14*
X151335000Y-73640000D03*
D13*
X150500000Y-71100000D03*
D14*
X151335000Y-71100000D03*
D11*
X124300000Y-78950000D03*
X124300000Y-80700000D03*
X127800000Y-80700000D03*
X127800000Y-78950000D03*
D15*
X142600000Y-78300000D03*
X157658000Y-78257000D03*
X142300000Y-84263000D03*
X143107235Y-82607235D03*
D16*
X124300000Y-80700000D02*
X125923000Y-82323000D01*
X142600000Y-78300000D02*
X142500000Y-78300000D01*
X125923000Y-82323000D02*
X136169900Y-82323000D01*
X140192900Y-78300000D02*
X142600000Y-78300000D01*
X136169900Y-82323000D02*
X140192900Y-78300000D01*
X157658000Y-79133000D02*
X157658000Y-78257000D01*
X159100000Y-80575000D02*
X157658000Y-79133000D01*
X159100000Y-78825000D02*
X159025000Y-78825000D01*
X125200000Y-78000000D02*
X125200000Y-78100000D01*
X76800000Y-99300000D02*
X76800000Y-86900000D01*
X160201000Y-80001000D02*
X160201000Y-81301000D01*
X80264500Y-102764500D02*
X76800000Y-99300000D01*
X121681500Y-74481500D02*
X125200000Y-78000000D01*
X159025000Y-78825000D02*
X160201000Y-80001000D01*
X89218500Y-74481500D02*
X121681500Y-74481500D01*
X125200000Y-78100000D02*
X127800000Y-80700000D01*
X138737500Y-102764500D02*
X80264500Y-102764500D01*
X76800000Y-86900000D02*
X89218500Y-74481500D01*
X160201000Y-81301000D02*
X138737500Y-102764500D01*
X144357000Y-77243000D02*
X129507000Y-77243000D01*
X150500000Y-71100000D02*
X144357000Y-77243000D01*
X150500000Y-71100000D02*
X154875000Y-71100000D01*
X129507000Y-77243000D02*
X127800000Y-78950000D01*
X154875000Y-71100000D02*
X162600000Y-78825000D01*
X138863000Y-77657000D02*
X159682000Y-77657000D01*
X135260000Y-81260000D02*
X134182370Y-81260000D01*
X135260000Y-81260000D02*
X134646374Y-81260000D01*
X135260000Y-81260000D02*
X138863000Y-77657000D01*
X159682000Y-77657000D02*
X162600000Y-80575000D01*
X115453970Y-84863000D02*
X109013470Y-78422500D01*
X149023000Y-84863000D02*
X115453970Y-84863000D01*
X150500000Y-86340000D02*
X149023000Y-84863000D01*
X109013470Y-78422500D02*
X100965000Y-78422500D01*
X152852000Y-87141626D02*
X146462126Y-93531500D01*
X85856000Y-93531500D02*
X81915000Y-97472500D01*
X150500000Y-83800000D02*
X151577630Y-83800000D01*
X146462126Y-93531500D02*
X85856000Y-93531500D01*
X151577630Y-83800000D02*
X152852000Y-85074370D01*
X152852000Y-85074370D02*
X152852000Y-87141626D01*
X153253000Y-83373000D02*
X153253000Y-87307726D01*
X138197226Y-102363500D02*
X103744470Y-102363500D01*
X153253000Y-87307726D02*
X138197226Y-102363500D01*
X103744470Y-102363500D02*
X100965000Y-99584030D01*
X150500000Y-81260000D02*
X151577630Y-81260000D01*
X100965000Y-99584030D02*
X100965000Y-97472500D01*
X151140000Y-81260000D02*
X153253000Y-83373000D01*
X150500000Y-81260000D02*
X151140000Y-81260000D01*
X147843000Y-78720000D02*
X142300000Y-84263000D01*
X150500000Y-78720000D02*
X147843000Y-78720000D01*
X135260000Y-73640000D02*
X139264000Y-69636000D01*
X139264000Y-69636000D02*
X168378500Y-69636000D01*
X168378500Y-69636000D02*
X177165000Y-78422500D01*
X163701000Y-91886500D02*
X158115000Y-97472500D01*
X155639000Y-70037000D02*
X163701000Y-78099000D01*
X141403000Y-70037000D02*
X155639000Y-70037000D01*
X163701000Y-78099000D02*
X163701000Y-91886500D01*
X135260000Y-76180000D02*
X141403000Y-70037000D01*
X135260000Y-78720000D02*
X134182370Y-78720000D01*
X135260000Y-83800000D02*
X136452765Y-82607235D01*
X195786530Y-97472500D02*
X196215000Y-97472500D01*
X136452765Y-82607235D02*
X143107235Y-82607235D01*
M02*
