M48
; DRILL file {KiCad 9.0.2} date 2025-11-24T09:52:20-0600
; FORMAT={-:-/ absolute / metric / decimal}
; #@! TF.CreationDate,2025-11-24T09:52:20-06:00
; #@! TF.GenerationSoftware,Kicad,Pcbnew,9.0.2
; #@! TF.FileFunction,Plated,1,2,PTH
FMAT,2
METRIC
; #@! TA.AperFunction,Plated,PTH,ViaDrill
T1C0.300
; #@! TA.AperFunction,Plated,PTH,ComponentDrill
T2C0.889
; #@! TA.AperFunction,Plated,PTH,ComponentDrill
T3C1.500
%
G90
G05
T1
X142.3Y-84.263
X142.6Y-78.3
X143.107Y-82.607
X157.658Y-78.257
T2
X135.26Y-71.1
X135.26Y-73.64
X135.26Y-76.18
X135.26Y-78.72
X135.26Y-81.26
X135.26Y-83.8
X135.26Y-86.34
X150.5Y-71.1
X150.5Y-73.64
X150.5Y-76.18
X150.5Y-78.72
X150.5Y-81.26
X150.5Y-83.8
X150.5Y-86.34
T3
X81.915Y-97.472
X88.265Y-94.932
X100.965Y-78.422
X100.965Y-97.472
X107.315Y-75.882
X107.315Y-94.932
X120.015Y-97.472
X126.365Y-94.932
X158.115Y-97.472
X164.465Y-94.932
X177.165Y-78.422
X177.165Y-97.472
X183.515Y-75.882
X183.515Y-94.932
X196.215Y-97.472
X202.565Y-94.932
M30
