G04 #@! TF.GenerationSoftware,KiCad,Pcbnew,9.0.2*
G04 #@! TF.CreationDate,2025-11-24T09:54:34-06:00*
G04 #@! TF.ProjectId,Keypad,4b657970-6164-42e6-9b69-6361645f7063,rev?*
G04 #@! TF.SameCoordinates,Original*
G04 #@! TF.FileFunction,Soldermask,Top*
G04 #@! TF.FilePolarity,Negative*
%FSLAX46Y46*%
G04 Gerber Fmt 4.6, Leading zero omitted, Abs format (unit mm)*
G04 Created by KiCad (PCBNEW 9.0.2) date 2025-11-24 09:54:34*
%MOMM*%
%LPD*%
G01*
G04 APERTURE LIST*
G04 Aperture macros list*
%AMRoundRect*
0 Rectangle with rounded corners*
0 $1 Rounding radius*
0 $2 $3 $4 $5 $6 $7 $8 $9 X,Y pos of 4 corners*
0 Add a 4 corners polygon primitive as box body*
4,1,4,$2,$3,$4,$5,$6,$7,$8,$9,$2,$3,0*
0 Add four circle primitives for the rounded corners*
1,1,$1+$1,$2,$3*
1,1,$1+$1,$4,$5*
1,1,$1+$1,$6,$7*
1,1,$1+$1,$8,$9*
0 Add four rect primitives between the rounded corners*
20,1,$1+$1,$2,$3,$4,$5,0*
20,1,$1+$1,$4,$5,$6,$7,0*
20,1,$1+$1,$6,$7,$8,$9,0*
20,1,$1+$1,$8,$9,$2,$3,0*%
G04 Aperture macros list end*
%ADD10C,1.700000*%
%ADD11C,4.000000*%
%ADD12C,2.200000*%
%ADD13R,1.600000X0.850000*%
%ADD14RoundRect,0.152400X1.063600X0.609600X-1.063600X0.609600X-1.063600X-0.609600X1.063600X-0.609600X0*%
%ADD15C,1.524000*%
%ADD16RoundRect,0.152400X-1.063600X-0.609600X1.063600X-0.609600X1.063600X0.609600X-1.063600X0.609600X0*%
G04 APERTURE END LIST*
D10*
X175895000Y-80962500D03*
D11*
X180975000Y-80962500D03*
D10*
X186055000Y-80962500D03*
D12*
X183515000Y-75882500D03*
X177165000Y-78422500D03*
D10*
X99695000Y-80962500D03*
D11*
X104775000Y-80962500D03*
D10*
X109855000Y-80962500D03*
D12*
X107315000Y-75882500D03*
X100965000Y-78422500D03*
D10*
X156845000Y-100012500D03*
D11*
X161925000Y-100012500D03*
D10*
X167005000Y-100012500D03*
D12*
X164465000Y-94932500D03*
X158115000Y-97472500D03*
D10*
X99695000Y-100012500D03*
D11*
X104775000Y-100012500D03*
D10*
X109855000Y-100012500D03*
D12*
X107315000Y-94932500D03*
X100965000Y-97472500D03*
D10*
X80645000Y-100012500D03*
D11*
X85725000Y-100012500D03*
D10*
X90805000Y-100012500D03*
D12*
X88265000Y-94932500D03*
X81915000Y-97472500D03*
D10*
X194945000Y-100012500D03*
D11*
X200025000Y-100012500D03*
D10*
X205105000Y-100012500D03*
D12*
X202565000Y-94932500D03*
X196215000Y-97472500D03*
D10*
X118745000Y-100012500D03*
D11*
X123825000Y-100012500D03*
D10*
X128905000Y-100012500D03*
D12*
X126365000Y-94932500D03*
X120015000Y-97472500D03*
D10*
X175895000Y-100012500D03*
D11*
X180975000Y-100012500D03*
D10*
X186055000Y-100012500D03*
D12*
X183515000Y-94932500D03*
X177165000Y-97472500D03*
D13*
X159100000Y-78825000D03*
X159100000Y-80575000D03*
X162600000Y-80575000D03*
X162600000Y-78825000D03*
D14*
X134425000Y-71100000D03*
D15*
X135260000Y-71100000D03*
D14*
X134425000Y-73640000D03*
D15*
X135260000Y-73640000D03*
D14*
X134425000Y-76180000D03*
D15*
X135260000Y-76180000D03*
D14*
X134425000Y-78720000D03*
D15*
X135260000Y-78720000D03*
D14*
X134425000Y-81260000D03*
D15*
X135260000Y-81260000D03*
D14*
X134425000Y-83800000D03*
D15*
X135260000Y-83800000D03*
D14*
X134425000Y-86340000D03*
D15*
X135260000Y-86340000D03*
X150500000Y-86340000D03*
D16*
X151335000Y-86340000D03*
D15*
X150500000Y-83800000D03*
D16*
X151335000Y-83800000D03*
D15*
X150500000Y-81260000D03*
D16*
X151335000Y-81260000D03*
D15*
X150500000Y-78720000D03*
D16*
X151335000Y-78720000D03*
D15*
X150500000Y-76180000D03*
D16*
X151335000Y-76180000D03*
D15*
X150500000Y-73640000D03*
D16*
X151335000Y-73640000D03*
D15*
X150500000Y-71100000D03*
D16*
X151335000Y-71100000D03*
D13*
X124300000Y-78950000D03*
X124300000Y-80700000D03*
X127800000Y-80700000D03*
X127800000Y-78950000D03*
M02*
