G04 #@! TF.GenerationSoftware,KiCad,Pcbnew,9.0.2*
G04 #@! TF.CreationDate,2025-11-24T09:54:34-06:00*
G04 #@! TF.ProjectId,Keypad,4b657970-6164-42e6-9b69-6361645f7063,rev?*
G04 #@! TF.SameCoordinates,Original*
G04 #@! TF.FileFunction,Legend,Top*
G04 #@! TF.FilePolarity,Positive*
%FSLAX46Y46*%
G04 Gerber Fmt 4.6, Leading zero omitted, Abs format (unit mm)*
G04 Created by KiCad (PCBNEW 9.0.2) date 2025-11-24 09:54:34*
%MOMM*%
%LPD*%
G01*
G04 APERTURE LIST*
G04 Aperture macros list*
%AMRoundRect*
0 Rectangle with rounded corners*
0 $1 Rounding radius*
0 $2 $3 $4 $5 $6 $7 $8 $9 X,Y pos of 4 corners*
0 Add a 4 corners polygon primitive as box body*
4,1,4,$2,$3,$4,$5,$6,$7,$8,$9,$2,$3,0*
0 Add four circle primitives for the rounded corners*
1,1,$1+$1,$2,$3*
1,1,$1+$1,$4,$5*
1,1,$1+$1,$6,$7*
1,1,$1+$1,$8,$9*
0 Add four rect primitives between the rounded corners*
20,1,$1+$1,$2,$3,$4,$5,0*
20,1,$1+$1,$4,$5,$6,$7,0*
20,1,$1+$1,$6,$7,$8,$9,0*
20,1,$1+$1,$8,$9,$2,$3,0*%
G04 Aperture macros list end*
%ADD10C,0.150000*%
%ADD11C,0.101600*%
%ADD12C,0.120000*%
%ADD13C,0.127000*%
%ADD14C,0.100000*%
%ADD15C,0.504000*%
%ADD16C,1.700000*%
%ADD17C,4.000000*%
%ADD18C,2.200000*%
%ADD19R,1.600000X0.850000*%
%ADD20RoundRect,0.152400X1.063600X0.609600X-1.063600X0.609600X-1.063600X-0.609600X1.063600X-0.609600X0*%
%ADD21C,1.524000*%
%ADD22RoundRect,0.152400X-1.063600X-0.609600X1.063600X-0.609600X1.063600X0.609600X-1.063600X0.609600X0*%
G04 APERTURE END LIST*
D10*
X179641667Y-73495700D02*
X179784524Y-73543319D01*
X179784524Y-73543319D02*
X180022619Y-73543319D01*
X180022619Y-73543319D02*
X180117857Y-73495700D01*
X180117857Y-73495700D02*
X180165476Y-73448080D01*
X180165476Y-73448080D02*
X180213095Y-73352842D01*
X180213095Y-73352842D02*
X180213095Y-73257604D01*
X180213095Y-73257604D02*
X180165476Y-73162366D01*
X180165476Y-73162366D02*
X180117857Y-73114747D01*
X180117857Y-73114747D02*
X180022619Y-73067128D01*
X180022619Y-73067128D02*
X179832143Y-73019509D01*
X179832143Y-73019509D02*
X179736905Y-72971890D01*
X179736905Y-72971890D02*
X179689286Y-72924271D01*
X179689286Y-72924271D02*
X179641667Y-72829033D01*
X179641667Y-72829033D02*
X179641667Y-72733795D01*
X179641667Y-72733795D02*
X179689286Y-72638557D01*
X179689286Y-72638557D02*
X179736905Y-72590938D01*
X179736905Y-72590938D02*
X179832143Y-72543319D01*
X179832143Y-72543319D02*
X180070238Y-72543319D01*
X180070238Y-72543319D02*
X180213095Y-72590938D01*
X180546429Y-72543319D02*
X180784524Y-73543319D01*
X180784524Y-73543319D02*
X180975000Y-72829033D01*
X180975000Y-72829033D02*
X181165476Y-73543319D01*
X181165476Y-73543319D02*
X181403572Y-72543319D01*
X182260714Y-72543319D02*
X181784524Y-72543319D01*
X181784524Y-72543319D02*
X181736905Y-73019509D01*
X181736905Y-73019509D02*
X181784524Y-72971890D01*
X181784524Y-72971890D02*
X181879762Y-72924271D01*
X181879762Y-72924271D02*
X182117857Y-72924271D01*
X182117857Y-72924271D02*
X182213095Y-72971890D01*
X182213095Y-72971890D02*
X182260714Y-73019509D01*
X182260714Y-73019509D02*
X182308333Y-73114747D01*
X182308333Y-73114747D02*
X182308333Y-73352842D01*
X182308333Y-73352842D02*
X182260714Y-73448080D01*
X182260714Y-73448080D02*
X182213095Y-73495700D01*
X182213095Y-73495700D02*
X182117857Y-73543319D01*
X182117857Y-73543319D02*
X181879762Y-73543319D01*
X181879762Y-73543319D02*
X181784524Y-73495700D01*
X181784524Y-73495700D02*
X181736905Y-73448080D01*
X103441667Y-73495700D02*
X103584524Y-73543319D01*
X103584524Y-73543319D02*
X103822619Y-73543319D01*
X103822619Y-73543319D02*
X103917857Y-73495700D01*
X103917857Y-73495700D02*
X103965476Y-73448080D01*
X103965476Y-73448080D02*
X104013095Y-73352842D01*
X104013095Y-73352842D02*
X104013095Y-73257604D01*
X104013095Y-73257604D02*
X103965476Y-73162366D01*
X103965476Y-73162366D02*
X103917857Y-73114747D01*
X103917857Y-73114747D02*
X103822619Y-73067128D01*
X103822619Y-73067128D02*
X103632143Y-73019509D01*
X103632143Y-73019509D02*
X103536905Y-72971890D01*
X103536905Y-72971890D02*
X103489286Y-72924271D01*
X103489286Y-72924271D02*
X103441667Y-72829033D01*
X103441667Y-72829033D02*
X103441667Y-72733795D01*
X103441667Y-72733795D02*
X103489286Y-72638557D01*
X103489286Y-72638557D02*
X103536905Y-72590938D01*
X103536905Y-72590938D02*
X103632143Y-72543319D01*
X103632143Y-72543319D02*
X103870238Y-72543319D01*
X103870238Y-72543319D02*
X104013095Y-72590938D01*
X104346429Y-72543319D02*
X104584524Y-73543319D01*
X104584524Y-73543319D02*
X104775000Y-72829033D01*
X104775000Y-72829033D02*
X104965476Y-73543319D01*
X104965476Y-73543319D02*
X105203572Y-72543319D01*
X106108333Y-73543319D02*
X105536905Y-73543319D01*
X105822619Y-73543319D02*
X105822619Y-72543319D01*
X105822619Y-72543319D02*
X105727381Y-72686176D01*
X105727381Y-72686176D02*
X105632143Y-72781414D01*
X105632143Y-72781414D02*
X105536905Y-72829033D01*
X160591667Y-92545700D02*
X160734524Y-92593319D01*
X160734524Y-92593319D02*
X160972619Y-92593319D01*
X160972619Y-92593319D02*
X161067857Y-92545700D01*
X161067857Y-92545700D02*
X161115476Y-92498080D01*
X161115476Y-92498080D02*
X161163095Y-92402842D01*
X161163095Y-92402842D02*
X161163095Y-92307604D01*
X161163095Y-92307604D02*
X161115476Y-92212366D01*
X161115476Y-92212366D02*
X161067857Y-92164747D01*
X161067857Y-92164747D02*
X160972619Y-92117128D01*
X160972619Y-92117128D02*
X160782143Y-92069509D01*
X160782143Y-92069509D02*
X160686905Y-92021890D01*
X160686905Y-92021890D02*
X160639286Y-91974271D01*
X160639286Y-91974271D02*
X160591667Y-91879033D01*
X160591667Y-91879033D02*
X160591667Y-91783795D01*
X160591667Y-91783795D02*
X160639286Y-91688557D01*
X160639286Y-91688557D02*
X160686905Y-91640938D01*
X160686905Y-91640938D02*
X160782143Y-91593319D01*
X160782143Y-91593319D02*
X161020238Y-91593319D01*
X161020238Y-91593319D02*
X161163095Y-91640938D01*
X161496429Y-91593319D02*
X161734524Y-92593319D01*
X161734524Y-92593319D02*
X161925000Y-91879033D01*
X161925000Y-91879033D02*
X162115476Y-92593319D01*
X162115476Y-92593319D02*
X162353572Y-91593319D01*
X163163095Y-91593319D02*
X162972619Y-91593319D01*
X162972619Y-91593319D02*
X162877381Y-91640938D01*
X162877381Y-91640938D02*
X162829762Y-91688557D01*
X162829762Y-91688557D02*
X162734524Y-91831414D01*
X162734524Y-91831414D02*
X162686905Y-92021890D01*
X162686905Y-92021890D02*
X162686905Y-92402842D01*
X162686905Y-92402842D02*
X162734524Y-92498080D01*
X162734524Y-92498080D02*
X162782143Y-92545700D01*
X162782143Y-92545700D02*
X162877381Y-92593319D01*
X162877381Y-92593319D02*
X163067857Y-92593319D01*
X163067857Y-92593319D02*
X163163095Y-92545700D01*
X163163095Y-92545700D02*
X163210714Y-92498080D01*
X163210714Y-92498080D02*
X163258333Y-92402842D01*
X163258333Y-92402842D02*
X163258333Y-92164747D01*
X163258333Y-92164747D02*
X163210714Y-92069509D01*
X163210714Y-92069509D02*
X163163095Y-92021890D01*
X163163095Y-92021890D02*
X163067857Y-91974271D01*
X163067857Y-91974271D02*
X162877381Y-91974271D01*
X162877381Y-91974271D02*
X162782143Y-92021890D01*
X162782143Y-92021890D02*
X162734524Y-92069509D01*
X162734524Y-92069509D02*
X162686905Y-92164747D01*
X103441667Y-92545700D02*
X103584524Y-92593319D01*
X103584524Y-92593319D02*
X103822619Y-92593319D01*
X103822619Y-92593319D02*
X103917857Y-92545700D01*
X103917857Y-92545700D02*
X103965476Y-92498080D01*
X103965476Y-92498080D02*
X104013095Y-92402842D01*
X104013095Y-92402842D02*
X104013095Y-92307604D01*
X104013095Y-92307604D02*
X103965476Y-92212366D01*
X103965476Y-92212366D02*
X103917857Y-92164747D01*
X103917857Y-92164747D02*
X103822619Y-92117128D01*
X103822619Y-92117128D02*
X103632143Y-92069509D01*
X103632143Y-92069509D02*
X103536905Y-92021890D01*
X103536905Y-92021890D02*
X103489286Y-91974271D01*
X103489286Y-91974271D02*
X103441667Y-91879033D01*
X103441667Y-91879033D02*
X103441667Y-91783795D01*
X103441667Y-91783795D02*
X103489286Y-91688557D01*
X103489286Y-91688557D02*
X103536905Y-91640938D01*
X103536905Y-91640938D02*
X103632143Y-91593319D01*
X103632143Y-91593319D02*
X103870238Y-91593319D01*
X103870238Y-91593319D02*
X104013095Y-91640938D01*
X104346429Y-91593319D02*
X104584524Y-92593319D01*
X104584524Y-92593319D02*
X104775000Y-91879033D01*
X104775000Y-91879033D02*
X104965476Y-92593319D01*
X104965476Y-92593319D02*
X105203572Y-91593319D01*
X105489286Y-91593319D02*
X106108333Y-91593319D01*
X106108333Y-91593319D02*
X105775000Y-91974271D01*
X105775000Y-91974271D02*
X105917857Y-91974271D01*
X105917857Y-91974271D02*
X106013095Y-92021890D01*
X106013095Y-92021890D02*
X106060714Y-92069509D01*
X106060714Y-92069509D02*
X106108333Y-92164747D01*
X106108333Y-92164747D02*
X106108333Y-92402842D01*
X106108333Y-92402842D02*
X106060714Y-92498080D01*
X106060714Y-92498080D02*
X106013095Y-92545700D01*
X106013095Y-92545700D02*
X105917857Y-92593319D01*
X105917857Y-92593319D02*
X105632143Y-92593319D01*
X105632143Y-92593319D02*
X105536905Y-92545700D01*
X105536905Y-92545700D02*
X105489286Y-92498080D01*
X84391667Y-92545700D02*
X84534524Y-92593319D01*
X84534524Y-92593319D02*
X84772619Y-92593319D01*
X84772619Y-92593319D02*
X84867857Y-92545700D01*
X84867857Y-92545700D02*
X84915476Y-92498080D01*
X84915476Y-92498080D02*
X84963095Y-92402842D01*
X84963095Y-92402842D02*
X84963095Y-92307604D01*
X84963095Y-92307604D02*
X84915476Y-92212366D01*
X84915476Y-92212366D02*
X84867857Y-92164747D01*
X84867857Y-92164747D02*
X84772619Y-92117128D01*
X84772619Y-92117128D02*
X84582143Y-92069509D01*
X84582143Y-92069509D02*
X84486905Y-92021890D01*
X84486905Y-92021890D02*
X84439286Y-91974271D01*
X84439286Y-91974271D02*
X84391667Y-91879033D01*
X84391667Y-91879033D02*
X84391667Y-91783795D01*
X84391667Y-91783795D02*
X84439286Y-91688557D01*
X84439286Y-91688557D02*
X84486905Y-91640938D01*
X84486905Y-91640938D02*
X84582143Y-91593319D01*
X84582143Y-91593319D02*
X84820238Y-91593319D01*
X84820238Y-91593319D02*
X84963095Y-91640938D01*
X85296429Y-91593319D02*
X85534524Y-92593319D01*
X85534524Y-92593319D02*
X85725000Y-91879033D01*
X85725000Y-91879033D02*
X85915476Y-92593319D01*
X85915476Y-92593319D02*
X86153572Y-91593319D01*
X86486905Y-91688557D02*
X86534524Y-91640938D01*
X86534524Y-91640938D02*
X86629762Y-91593319D01*
X86629762Y-91593319D02*
X86867857Y-91593319D01*
X86867857Y-91593319D02*
X86963095Y-91640938D01*
X86963095Y-91640938D02*
X87010714Y-91688557D01*
X87010714Y-91688557D02*
X87058333Y-91783795D01*
X87058333Y-91783795D02*
X87058333Y-91879033D01*
X87058333Y-91879033D02*
X87010714Y-92021890D01*
X87010714Y-92021890D02*
X86439286Y-92593319D01*
X86439286Y-92593319D02*
X87058333Y-92593319D01*
X198691667Y-92545700D02*
X198834524Y-92593319D01*
X198834524Y-92593319D02*
X199072619Y-92593319D01*
X199072619Y-92593319D02*
X199167857Y-92545700D01*
X199167857Y-92545700D02*
X199215476Y-92498080D01*
X199215476Y-92498080D02*
X199263095Y-92402842D01*
X199263095Y-92402842D02*
X199263095Y-92307604D01*
X199263095Y-92307604D02*
X199215476Y-92212366D01*
X199215476Y-92212366D02*
X199167857Y-92164747D01*
X199167857Y-92164747D02*
X199072619Y-92117128D01*
X199072619Y-92117128D02*
X198882143Y-92069509D01*
X198882143Y-92069509D02*
X198786905Y-92021890D01*
X198786905Y-92021890D02*
X198739286Y-91974271D01*
X198739286Y-91974271D02*
X198691667Y-91879033D01*
X198691667Y-91879033D02*
X198691667Y-91783795D01*
X198691667Y-91783795D02*
X198739286Y-91688557D01*
X198739286Y-91688557D02*
X198786905Y-91640938D01*
X198786905Y-91640938D02*
X198882143Y-91593319D01*
X198882143Y-91593319D02*
X199120238Y-91593319D01*
X199120238Y-91593319D02*
X199263095Y-91640938D01*
X199596429Y-91593319D02*
X199834524Y-92593319D01*
X199834524Y-92593319D02*
X200025000Y-91879033D01*
X200025000Y-91879033D02*
X200215476Y-92593319D01*
X200215476Y-92593319D02*
X200453572Y-91593319D01*
X200977381Y-92021890D02*
X200882143Y-91974271D01*
X200882143Y-91974271D02*
X200834524Y-91926652D01*
X200834524Y-91926652D02*
X200786905Y-91831414D01*
X200786905Y-91831414D02*
X200786905Y-91783795D01*
X200786905Y-91783795D02*
X200834524Y-91688557D01*
X200834524Y-91688557D02*
X200882143Y-91640938D01*
X200882143Y-91640938D02*
X200977381Y-91593319D01*
X200977381Y-91593319D02*
X201167857Y-91593319D01*
X201167857Y-91593319D02*
X201263095Y-91640938D01*
X201263095Y-91640938D02*
X201310714Y-91688557D01*
X201310714Y-91688557D02*
X201358333Y-91783795D01*
X201358333Y-91783795D02*
X201358333Y-91831414D01*
X201358333Y-91831414D02*
X201310714Y-91926652D01*
X201310714Y-91926652D02*
X201263095Y-91974271D01*
X201263095Y-91974271D02*
X201167857Y-92021890D01*
X201167857Y-92021890D02*
X200977381Y-92021890D01*
X200977381Y-92021890D02*
X200882143Y-92069509D01*
X200882143Y-92069509D02*
X200834524Y-92117128D01*
X200834524Y-92117128D02*
X200786905Y-92212366D01*
X200786905Y-92212366D02*
X200786905Y-92402842D01*
X200786905Y-92402842D02*
X200834524Y-92498080D01*
X200834524Y-92498080D02*
X200882143Y-92545700D01*
X200882143Y-92545700D02*
X200977381Y-92593319D01*
X200977381Y-92593319D02*
X201167857Y-92593319D01*
X201167857Y-92593319D02*
X201263095Y-92545700D01*
X201263095Y-92545700D02*
X201310714Y-92498080D01*
X201310714Y-92498080D02*
X201358333Y-92402842D01*
X201358333Y-92402842D02*
X201358333Y-92212366D01*
X201358333Y-92212366D02*
X201310714Y-92117128D01*
X201310714Y-92117128D02*
X201263095Y-92069509D01*
X201263095Y-92069509D02*
X201167857Y-92021890D01*
X122491667Y-92545700D02*
X122634524Y-92593319D01*
X122634524Y-92593319D02*
X122872619Y-92593319D01*
X122872619Y-92593319D02*
X122967857Y-92545700D01*
X122967857Y-92545700D02*
X123015476Y-92498080D01*
X123015476Y-92498080D02*
X123063095Y-92402842D01*
X123063095Y-92402842D02*
X123063095Y-92307604D01*
X123063095Y-92307604D02*
X123015476Y-92212366D01*
X123015476Y-92212366D02*
X122967857Y-92164747D01*
X122967857Y-92164747D02*
X122872619Y-92117128D01*
X122872619Y-92117128D02*
X122682143Y-92069509D01*
X122682143Y-92069509D02*
X122586905Y-92021890D01*
X122586905Y-92021890D02*
X122539286Y-91974271D01*
X122539286Y-91974271D02*
X122491667Y-91879033D01*
X122491667Y-91879033D02*
X122491667Y-91783795D01*
X122491667Y-91783795D02*
X122539286Y-91688557D01*
X122539286Y-91688557D02*
X122586905Y-91640938D01*
X122586905Y-91640938D02*
X122682143Y-91593319D01*
X122682143Y-91593319D02*
X122920238Y-91593319D01*
X122920238Y-91593319D02*
X123063095Y-91640938D01*
X123396429Y-91593319D02*
X123634524Y-92593319D01*
X123634524Y-92593319D02*
X123825000Y-91879033D01*
X123825000Y-91879033D02*
X124015476Y-92593319D01*
X124015476Y-92593319D02*
X124253572Y-91593319D01*
X125063095Y-91926652D02*
X125063095Y-92593319D01*
X124825000Y-91545700D02*
X124586905Y-92259985D01*
X124586905Y-92259985D02*
X125205952Y-92259985D01*
X179641667Y-92545700D02*
X179784524Y-92593319D01*
X179784524Y-92593319D02*
X180022619Y-92593319D01*
X180022619Y-92593319D02*
X180117857Y-92545700D01*
X180117857Y-92545700D02*
X180165476Y-92498080D01*
X180165476Y-92498080D02*
X180213095Y-92402842D01*
X180213095Y-92402842D02*
X180213095Y-92307604D01*
X180213095Y-92307604D02*
X180165476Y-92212366D01*
X180165476Y-92212366D02*
X180117857Y-92164747D01*
X180117857Y-92164747D02*
X180022619Y-92117128D01*
X180022619Y-92117128D02*
X179832143Y-92069509D01*
X179832143Y-92069509D02*
X179736905Y-92021890D01*
X179736905Y-92021890D02*
X179689286Y-91974271D01*
X179689286Y-91974271D02*
X179641667Y-91879033D01*
X179641667Y-91879033D02*
X179641667Y-91783795D01*
X179641667Y-91783795D02*
X179689286Y-91688557D01*
X179689286Y-91688557D02*
X179736905Y-91640938D01*
X179736905Y-91640938D02*
X179832143Y-91593319D01*
X179832143Y-91593319D02*
X180070238Y-91593319D01*
X180070238Y-91593319D02*
X180213095Y-91640938D01*
X180546429Y-91593319D02*
X180784524Y-92593319D01*
X180784524Y-92593319D02*
X180975000Y-91879033D01*
X180975000Y-91879033D02*
X181165476Y-92593319D01*
X181165476Y-92593319D02*
X181403572Y-91593319D01*
X181689286Y-91593319D02*
X182355952Y-91593319D01*
X182355952Y-91593319D02*
X181927381Y-92593319D01*
X160111905Y-77404819D02*
X160111905Y-76404819D01*
X160111905Y-76404819D02*
X160350000Y-76404819D01*
X160350000Y-76404819D02*
X160492857Y-76452438D01*
X160492857Y-76452438D02*
X160588095Y-76547676D01*
X160588095Y-76547676D02*
X160635714Y-76642914D01*
X160635714Y-76642914D02*
X160683333Y-76833390D01*
X160683333Y-76833390D02*
X160683333Y-76976247D01*
X160683333Y-76976247D02*
X160635714Y-77166723D01*
X160635714Y-77166723D02*
X160588095Y-77261961D01*
X160588095Y-77261961D02*
X160492857Y-77357200D01*
X160492857Y-77357200D02*
X160350000Y-77404819D01*
X160350000Y-77404819D02*
X160111905Y-77404819D01*
X161064286Y-76500057D02*
X161111905Y-76452438D01*
X161111905Y-76452438D02*
X161207143Y-76404819D01*
X161207143Y-76404819D02*
X161445238Y-76404819D01*
X161445238Y-76404819D02*
X161540476Y-76452438D01*
X161540476Y-76452438D02*
X161588095Y-76500057D01*
X161588095Y-76500057D02*
X161635714Y-76595295D01*
X161635714Y-76595295D02*
X161635714Y-76690533D01*
X161635714Y-76690533D02*
X161588095Y-76833390D01*
X161588095Y-76833390D02*
X161016667Y-77404819D01*
X161016667Y-77404819D02*
X161635714Y-77404819D01*
X157878571Y-79187295D02*
X157421428Y-79187295D01*
X157650000Y-79187295D02*
X157650000Y-78387295D01*
X157650000Y-78387295D02*
X157573809Y-78501580D01*
X157573809Y-78501580D02*
X157497619Y-78577771D01*
X157497619Y-78577771D02*
X157421428Y-78615866D01*
D11*
X131116190Y-70153479D02*
X131116190Y-70667526D01*
X131116190Y-70667526D02*
X131146428Y-70728002D01*
X131146428Y-70728002D02*
X131176666Y-70758241D01*
X131176666Y-70758241D02*
X131237142Y-70788479D01*
X131237142Y-70788479D02*
X131358095Y-70788479D01*
X131358095Y-70788479D02*
X131418571Y-70758241D01*
X131418571Y-70758241D02*
X131448809Y-70728002D01*
X131448809Y-70728002D02*
X131479047Y-70667526D01*
X131479047Y-70667526D02*
X131479047Y-70153479D01*
X132114047Y-70788479D02*
X131751190Y-70788479D01*
X131932618Y-70788479D02*
X131932618Y-70153479D01*
X131932618Y-70153479D02*
X131872142Y-70244193D01*
X131872142Y-70244193D02*
X131811666Y-70304669D01*
X131811666Y-70304669D02*
X131751190Y-70334907D01*
D10*
X125311905Y-77529819D02*
X125311905Y-76529819D01*
X125311905Y-76529819D02*
X125550000Y-76529819D01*
X125550000Y-76529819D02*
X125692857Y-76577438D01*
X125692857Y-76577438D02*
X125788095Y-76672676D01*
X125788095Y-76672676D02*
X125835714Y-76767914D01*
X125835714Y-76767914D02*
X125883333Y-76958390D01*
X125883333Y-76958390D02*
X125883333Y-77101247D01*
X125883333Y-77101247D02*
X125835714Y-77291723D01*
X125835714Y-77291723D02*
X125788095Y-77386961D01*
X125788095Y-77386961D02*
X125692857Y-77482200D01*
X125692857Y-77482200D02*
X125550000Y-77529819D01*
X125550000Y-77529819D02*
X125311905Y-77529819D01*
X126835714Y-77529819D02*
X126264286Y-77529819D01*
X126550000Y-77529819D02*
X126550000Y-76529819D01*
X126550000Y-76529819D02*
X126454762Y-76672676D01*
X126454762Y-76672676D02*
X126359524Y-76767914D01*
X126359524Y-76767914D02*
X126264286Y-76815533D01*
X123078571Y-79312295D02*
X122621428Y-79312295D01*
X122850000Y-79312295D02*
X122850000Y-78512295D01*
X122850000Y-78512295D02*
X122773809Y-78626580D01*
X122773809Y-78626580D02*
X122697619Y-78702771D01*
X122697619Y-78702771D02*
X122621428Y-78740866D01*
D12*
X173990000Y-73977500D02*
X187960000Y-73977500D01*
X173990000Y-87947500D02*
X173990000Y-73977500D01*
X187960000Y-73977500D02*
X187960000Y-87947500D01*
X187960000Y-87947500D02*
X173990000Y-87947500D01*
X97790000Y-73977500D02*
X111760000Y-73977500D01*
X97790000Y-87947500D02*
X97790000Y-73977500D01*
X111760000Y-73977500D02*
X111760000Y-87947500D01*
X111760000Y-87947500D02*
X97790000Y-87947500D01*
X154940000Y-93027500D02*
X168910000Y-93027500D01*
X154940000Y-106997500D02*
X154940000Y-93027500D01*
X168910000Y-93027500D02*
X168910000Y-106997500D01*
X168910000Y-106997500D02*
X154940000Y-106997500D01*
X97790000Y-93027500D02*
X111760000Y-93027500D01*
X97790000Y-106997500D02*
X97790000Y-93027500D01*
X111760000Y-93027500D02*
X111760000Y-106997500D01*
X111760000Y-106997500D02*
X97790000Y-106997500D01*
X78740000Y-93027500D02*
X92710000Y-93027500D01*
X78740000Y-106997500D02*
X78740000Y-93027500D01*
X92710000Y-93027500D02*
X92710000Y-106997500D01*
X92710000Y-106997500D02*
X78740000Y-106997500D01*
X193040000Y-93027500D02*
X207010000Y-93027500D01*
X193040000Y-106997500D02*
X193040000Y-93027500D01*
X207010000Y-93027500D02*
X207010000Y-106997500D01*
X207010000Y-106997500D02*
X193040000Y-106997500D01*
X116840000Y-93027500D02*
X130810000Y-93027500D01*
X116840000Y-106997500D02*
X116840000Y-93027500D01*
X130810000Y-93027500D02*
X130810000Y-106997500D01*
X130810000Y-106997500D02*
X116840000Y-106997500D01*
X173990000Y-93027500D02*
X187960000Y-93027500D01*
X173990000Y-106997500D02*
X173990000Y-93027500D01*
X187960000Y-93027500D02*
X187960000Y-106997500D01*
X187960000Y-106997500D02*
X173990000Y-106997500D01*
X158050000Y-77700000D02*
X158050000Y-81700000D01*
X158050000Y-77700000D02*
X163650000Y-77700000D01*
X158050000Y-81700000D02*
X163050000Y-81700000D01*
X163650000Y-81100000D02*
X163050000Y-81700000D01*
X163650000Y-81100000D02*
X163650000Y-77700000D01*
D13*
X133990000Y-87229000D02*
X133990000Y-70084000D01*
X135895000Y-89134000D02*
X149865000Y-89134000D01*
X138385000Y-68179000D02*
X138388728Y-67268728D01*
X138888728Y-66769000D02*
X146884000Y-66769000D01*
X147384000Y-67269000D02*
X147384000Y-68179000D01*
D14*
X149865000Y-68179000D02*
X135895000Y-68179000D01*
D13*
X149865000Y-68179000D02*
X135895000Y-68179000D01*
X151770000Y-87229000D02*
X151770000Y-70084000D01*
X133990000Y-70084000D02*
G75*
G02*
X135895000Y-68179000I1905001J-1D01*
G01*
X135895000Y-89134000D02*
G75*
G02*
X133990000Y-87229000I1J1905001D01*
G01*
X138388728Y-67268728D02*
G75*
G02*
X138888728Y-66769001I500018J-291D01*
G01*
X146884000Y-66769000D02*
G75*
G02*
X147384000Y-67269000I0J-500000D01*
G01*
X149865000Y-68179000D02*
G75*
G02*
X151770000Y-70084000I0J-1905000D01*
G01*
X151770000Y-87229000D02*
G75*
G02*
X149865000Y-89134000I-1905000J0D01*
G01*
D15*
X134182000Y-68420000D02*
G75*
G02*
X133678000Y-68420000I-252000J0D01*
G01*
X133678000Y-68420000D02*
G75*
G02*
X134182000Y-68420000I252000J0D01*
G01*
X135325000Y-69300000D02*
G75*
G02*
X134821000Y-69300000I-252000J0D01*
G01*
X134821000Y-69300000D02*
G75*
G02*
X135325000Y-69300000I252000J0D01*
G01*
D12*
X123250000Y-77825000D02*
X123250000Y-81825000D01*
X123250000Y-77825000D02*
X128850000Y-77825000D01*
X123250000Y-81825000D02*
X128250000Y-81825000D01*
X128850000Y-81225000D02*
X128250000Y-81825000D01*
X128850000Y-81225000D02*
X128850000Y-77825000D01*
%LPC*%
D16*
X175895000Y-80962500D03*
D17*
X180975000Y-80962500D03*
D16*
X186055000Y-80962500D03*
D18*
X183515000Y-75882500D03*
X177165000Y-78422500D03*
D16*
X99695000Y-80962500D03*
D17*
X104775000Y-80962500D03*
D16*
X109855000Y-80962500D03*
D18*
X107315000Y-75882500D03*
X100965000Y-78422500D03*
D16*
X156845000Y-100012500D03*
D17*
X161925000Y-100012500D03*
D16*
X167005000Y-100012500D03*
D18*
X164465000Y-94932500D03*
X158115000Y-97472500D03*
D16*
X99695000Y-100012500D03*
D17*
X104775000Y-100012500D03*
D16*
X109855000Y-100012500D03*
D18*
X107315000Y-94932500D03*
X100965000Y-97472500D03*
D16*
X80645000Y-100012500D03*
D17*
X85725000Y-100012500D03*
D16*
X90805000Y-100012500D03*
D18*
X88265000Y-94932500D03*
X81915000Y-97472500D03*
D16*
X194945000Y-100012500D03*
D17*
X200025000Y-100012500D03*
D16*
X205105000Y-100012500D03*
D18*
X202565000Y-94932500D03*
X196215000Y-97472500D03*
D16*
X118745000Y-100012500D03*
D17*
X123825000Y-100012500D03*
D16*
X128905000Y-100012500D03*
D18*
X126365000Y-94932500D03*
X120015000Y-97472500D03*
D16*
X175895000Y-100012500D03*
D17*
X180975000Y-100012500D03*
D16*
X186055000Y-100012500D03*
D18*
X183515000Y-94932500D03*
X177165000Y-97472500D03*
D19*
X159100000Y-78825000D03*
X159100000Y-80575000D03*
X162600000Y-80575000D03*
X162600000Y-78825000D03*
D20*
X134425000Y-71100000D03*
D21*
X135260000Y-71100000D03*
D20*
X134425000Y-73640000D03*
D21*
X135260000Y-73640000D03*
D20*
X134425000Y-76180000D03*
D21*
X135260000Y-76180000D03*
D20*
X134425000Y-78720000D03*
D21*
X135260000Y-78720000D03*
D20*
X134425000Y-81260000D03*
D21*
X135260000Y-81260000D03*
D20*
X134425000Y-83800000D03*
D21*
X135260000Y-83800000D03*
D20*
X134425000Y-86340000D03*
D21*
X135260000Y-86340000D03*
X150500000Y-86340000D03*
D22*
X151335000Y-86340000D03*
D21*
X150500000Y-83800000D03*
D22*
X151335000Y-83800000D03*
D21*
X150500000Y-81260000D03*
D22*
X151335000Y-81260000D03*
D21*
X150500000Y-78720000D03*
D22*
X151335000Y-78720000D03*
D21*
X150500000Y-76180000D03*
D22*
X151335000Y-76180000D03*
D21*
X150500000Y-73640000D03*
D22*
X151335000Y-73640000D03*
D21*
X150500000Y-71100000D03*
D22*
X151335000Y-71100000D03*
D19*
X124300000Y-78950000D03*
X124300000Y-80700000D03*
X127800000Y-80700000D03*
X127800000Y-78950000D03*
%LPD*%
M02*
