G04 #@! TF.GenerationSoftware,KiCad,Pcbnew,9.0.2*
G04 #@! TF.CreationDate,2025-11-24T09:54:34-06:00*
G04 #@! TF.ProjectId,Keypad,4b657970-6164-42e6-9b69-6361645f7063,rev?*
G04 #@! TF.SameCoordinates,Original*
G04 #@! TF.FileFunction,Copper,L2,Bot*
G04 #@! TF.FilePolarity,Positive*
%FSLAX46Y46*%
G04 Gerber Fmt 4.6, Leading zero omitted, Abs format (unit mm)*
G04 Created by KiCad (PCBNEW 9.0.2) date 2025-11-24 09:54:34*
%MOMM*%
%LPD*%
G01*
G04 APERTURE LIST*
G04 #@! TA.AperFunction,ComponentPad*
%ADD10C,2.200000*%
G04 #@! TD*
G04 #@! TA.AperFunction,ComponentPad*
%ADD11C,1.524000*%
G04 #@! TD*
G04 #@! TA.AperFunction,ViaPad*
%ADD12C,0.600000*%
G04 #@! TD*
G04 #@! TA.AperFunction,Conductor*
%ADD13C,0.200000*%
G04 #@! TD*
G04 APERTURE END LIST*
D10*
X183515000Y-75882500D03*
X177165000Y-78422500D03*
X107315000Y-75882500D03*
X100965000Y-78422500D03*
X164465000Y-94932500D03*
X158115000Y-97472500D03*
X107315000Y-94932500D03*
X100965000Y-97472500D03*
X88265000Y-94932500D03*
X81915000Y-97472500D03*
X202565000Y-94932500D03*
X196215000Y-97472500D03*
X126365000Y-94932500D03*
X120015000Y-97472500D03*
X183515000Y-94932500D03*
X177165000Y-97472500D03*
D11*
X135260000Y-71100000D03*
X135260000Y-73640000D03*
X135260000Y-76180000D03*
X135260000Y-78720000D03*
X135260000Y-81260000D03*
X135260000Y-83800000D03*
X135260000Y-86340000D03*
X150500000Y-86340000D03*
X150500000Y-83800000D03*
X150500000Y-81260000D03*
X150500000Y-78720000D03*
X150500000Y-76180000D03*
X150500000Y-73640000D03*
X150500000Y-71100000D03*
D12*
X142600000Y-78300000D03*
X157658000Y-78257000D03*
X142300000Y-84263000D03*
X143107235Y-82607235D03*
D13*
X147260000Y-73640000D02*
X150500000Y-73640000D01*
X107315000Y-94932500D02*
X88265000Y-94932500D01*
X183515000Y-94932500D02*
X202565000Y-94932500D01*
X109089500Y-77657000D02*
X107315000Y-75882500D01*
X107315000Y-75882500D02*
X107315000Y-94932500D01*
X150500000Y-73640000D02*
X157900000Y-81040000D01*
X142600000Y-78300000D02*
X147260000Y-73640000D01*
X183515000Y-94932500D02*
X183515000Y-75882500D01*
X157900000Y-88367500D02*
X164465000Y-94932500D01*
X150500000Y-73640000D02*
X146483000Y-77657000D01*
X164465000Y-94932500D02*
X183515000Y-94932500D01*
X153041000Y-73640000D02*
X150500000Y-73640000D01*
X146483000Y-77657000D02*
X109089500Y-77657000D01*
X157658000Y-78257000D02*
X153041000Y-73640000D01*
X157900000Y-81040000D02*
X157900000Y-88367500D01*
X107315000Y-94932500D02*
X126365000Y-94932500D01*
X129090500Y-97472500D02*
X120015000Y-97472500D01*
X142300000Y-84263000D02*
X129090500Y-97472500D01*
X135260000Y-78720000D02*
X140069943Y-78720000D01*
X165023686Y-97472500D02*
X177165000Y-97472500D01*
X140069943Y-78720000D02*
X146626943Y-85277000D01*
X146626943Y-85277000D02*
X152828186Y-85277000D01*
X152828186Y-85277000D02*
X165023686Y-97472500D01*
X143107235Y-82607235D02*
X148473205Y-87973205D01*
X167600816Y-102363500D02*
X190895530Y-102363500D01*
X148473205Y-87973205D02*
X153210521Y-87973205D01*
X153210521Y-87973205D02*
X167600816Y-102363500D01*
X190895530Y-102363500D02*
X195786530Y-97472500D01*
X195786530Y-97472500D02*
X196215000Y-97472500D01*
M02*
