M48
; DRILL file {KiCad 9.0.2} date 2025-11-24T09:52:20-0600
; FORMAT={-:-/ absolute / metric / decimal}
; #@! TF.CreationDate,2025-11-24T09:52:20-06:00
; #@! TF.GenerationSoftware,Kicad,Pcbnew,9.0.2
; #@! TF.FileFunction,NonPlated,1,2,NPTH
FMAT,2
METRIC
; #@! TA.AperFunction,NonPlated,NPTH,ComponentDrill
T1C1.700
; #@! TA.AperFunction,NonPlated,NPTH,ComponentDrill
T2C4.000
%
G90
G05
T1
X80.645Y-100.012
X90.805Y-100.012
X99.695Y-80.962
X99.695Y-100.012
X109.855Y-80.962
X109.855Y-100.012
X118.745Y-100.012
X128.905Y-100.012
X156.845Y-100.012
X167.005Y-100.012
X175.895Y-80.962
X175.895Y-100.012
X186.055Y-80.962
X186.055Y-100.012
X194.945Y-100.012
X205.105Y-100.012
T2
X85.725Y-100.012
X104.775Y-80.962
X104.775Y-100.012
X123.825Y-100.012
X161.925Y-100.012
X180.975Y-80.962
X180.975Y-100.012
X200.025Y-100.012
M30
